<?xml version="1.0" standalone="no"?>
<!DOCTYPE svg PUBLIC "-//W3C//DTD SVG 20010904//EN"
 "http://www.w3.org/TR/2001/REC-SVG-20010904/DTD/svg10.dtd">
<svg version="1.0" xmlns="http://www.w3.org/2000/svg"
 width="400.000000pt" height="400.000000pt" viewBox="0 0 400.000000 400.000000"
 preserveAspectRatio="xMidYMid meet">
<metadata>
Created by potrace 1.11, written by Peter Selinger 2001-2013
</metadata>
<g transform="translate(0.000000,400.000000) scale(0.100000,-0.100000)"
fill="#000000" stroke="none">
<path d="M1675 3979 c-334 -59 -632 -194 -895 -406 -97 -79 -270 -258 -342
-354 -201 -269 -330 -581 -384 -924 -23 -150 -23 -442 0 -590 131 -846 729
-1494 1546 -1677 97 -21 127 -23 400 -23 273 0 303 2 400 23 969 217 1629
1109 1559 2110 -53 752 -511 1410 -1187 1707 -137 60 -299 108 -451 134 -168
29 -483 29 -646 0z m491 -70 c745 -72 1370 -574 1608 -1290 136 -407 137 -831
5 -1233 -162 -495 -528 -913 -989 -1130 -239 -112 -455 -164 -720 -173 -340
-11 -610 47 -904 196 -285 144 -540 371 -720 640 -65 97 -162 285 -199 386
-320 861 -9 1822 748 2314 349 226 766 330 1171 290z"/>
<path d="M1935 3441 c-183 -48 -282 -254 -203 -423 29 -62 91 -129 139 -149
l32 -13 -91 -22 c-104 -25 -214 -72 -210 -88 2 -6 19 -39 38 -74 24 -42 40
-61 50 -58 8 3 45 16 81 30 37 14 84 26 105 28 l39 3 0 -995 0 -995 -50 4
c-109 7 -289 76 -405 154 -176 119 -315 303 -387 512 -27 80 -53 217 -53 281
l0 44 -85 0 -85 0 0 -37 c0 -58 27 -220 50 -303 82 -293 309 -568 585 -709
164 -84 320 -121 515 -121 261 0 474 72 687 232 266 199 428 503 459 861 l6
77 -84 0 -85 0 -7 -79 c-39 -469 -391 -849 -848 -915 l-48 -7 0 1001 0 1002
43 -7 c23 -4 71 -18 107 -32 36 -13 71 -25 79 -26 13 -2 89 106 90 129 1 17
-109 63 -211 88 -89 22 -90 23 -62 35 17 6 50 31 74 54 155 151 112 411 -83
497 -54 24 -136 33 -182 21z m132 -187 c32 -20 63 -73 63 -106 0 -44 -30 -94
-70 -117 -47 -26 -70 -26 -119 -1 -68 34 -90 118 -48 181 43 65 115 83 174 43z"/>
<path d="M790 2470 c0 -5 6 -10 14 -10 21 0 26 -23 26 -132 0 -91 -2 -100 -20
-105 -46 -12 -14 -23 68 -23 106 0 148 18 176 73 38 80 -10 184 -94 201 -51
10 -170 7 -170 -4z m174 -33 c51 -51 40 -191 -16 -211 -48 -17 -58 3 -58 119
0 56 3 105 7 108 13 14 45 6 67 -16z"/>
<path d="M2971 2461 c-20 -20 -26 -45 -21 -81 3 -24 32 -51 77 -72 23 -11 45
-28 48 -38 20 -64 -68 -81 -100 -19 -22 41 -35 36 -35 -12 0 -31 3 -40 14 -36
8 3 30 1 49 -5 70 -21 127 15 127 80 0 44 -20 67 -86 100 -46 23 -61 47 -43
68 20 24 57 16 81 -16 28 -38 38 -38 38 -1 0 37 -7 41 -74 48 -46 5 -57 2 -75
-16z"/>
</g>
</svg>
